<svg id="Line" height="512" viewBox="0 0 36 36" width="512" xmlns="http://www.w3.org/2000/svg"><path d="m13.411 34.999c6.298-2.859 12.105-1.559 15.14-2.936 3.035-1.378 8.617-6.016 2.28-19.978s-15.841-12.12-19.18-10.605c-15.632 7.095-9.395 38.582 1.76 33.519z" fill="#efefef"/><path d="m33.899 6.421c-.827 0-1.5-.673-1.5-1.5s.673-1.5 1.5-1.5 1.5.673 1.5 1.5-.672 1.5-1.5 1.5zm0-2c-.275 0-.5.224-.5.5s.225.5.5.5.5-.224.5-.5-.224-.5-.5-.5z" fill="#a4afc1"/><path d="m11.886 14.75h2.691 13.695c.655 0 1.125.623.937 1.241l-.356 1.169-1.751 5.778c-.264.781-1.017 1.311-1.849 1.311h-9.199c-.871 0-1.643-.569-1.878-1.398z" fill="#f3f3f1"/><circle cx="17" cy="28" fill="#2fdf84" r="1.25"/><circle cx="24" cy="28" fill="#2fdf84" r="1.25"/><path d="m18.05 24.25h-2c-.87 0-1.64-.57-1.87-1.4l-2.29-8.1h2l2.29 8.1c.23.83 1 1.4 1.87 1.4z" fill="#d5dbe1"/><path d="m25.252 25h-9.198c-1.206 0-2.275-.799-2.601-1.944l-3.108-10.698c-.145-.507-.62-.858-1.159-.858h-2.436v-1.5h2.436c1.206 0 2.275.799 2.601 1.944l.597 2.056h15.888c.556 0 1.063.255 1.393.699.325.438.42.989.262 1.511l-2.106 6.946c-.378 1.112-1.407 1.844-2.569 1.844zm-12.433-9.5 2.075 7.142c.145.507.62.858 1.159.858h9.198c.511 0 .979-.33 1.14-.802l2.099-6.925c.024-.081-.004-.143-.031-.181-.025-.034-.084-.092-.188-.092z"/><path d="m17 30c-1.103 0-2-.897-2-2s.897-2 2-2 2 .897 2 2-.897 2-2 2zm0-2.5c-.275 0-.5.224-.5.5s.225.5.5.5.5-.224.5-.5-.225-.5-.5-.5z"/><path d="m24 30c-1.103 0-2-.897-2-2s.897-2 2-2 2 .897 2 2-.897 2-2 2zm0-2.5c-.275 0-.5.224-.5.5s.225.5.5.5.5-.224.5-.5-.225-.5-.5-.5z"/></svg>